<svg xmlns="http://www.w3.org/2000/svg" viewBox="0 -0.5 20 20" shape-rendering="crispEdges">
<path stroke="#000000" d="M0 0h4M16 0h4M0 1h1M3 1h1M16 1h1M19 1h1M0 2h1M3 2h3M14 2h3M19 2h1M0 3h1M5 3h1M14 3h1M19 3h1M0 4h1M5 4h10M19 4h1M0 5h1M19 5h1M0 6h1M19 6h1M0 7h2M18 7h2M1 8h1M18 8h1M1 9h1M6 9h1M12 9h1M18 9h1M1 10h1M6 10h2M12 10h2M18 10h1M1 11h1M18 11h1M1 12h1M18 12h1M1 13h2M17 13h2M2 14h5M13 14h5M6 15h1M13 15h1M6 16h2M12 16h2M7 17h1M12 17h1M7 18h2M11 18h2M8 19h4" />
<path stroke="#747474" d="M1 1h1M18 1h1M1 2h1M18 2h1M4 3h1M15 3h1M4 4h1M15 4h1M1 6h1M18 6h1" />
<path stroke="#818181" d="M2 1h1M17 1h1M1 3h1M3 3h1M16 3h1M18 3h1M1 4h1M18 4h1M1 5h1M18 5h1" />
<path stroke="#9f9f9f" d="M2 2h1M17 2h1M2 3h1M17 3h1M2 4h2M16 4h2M2 5h1M17 5h1" />
<path stroke="#5e5e5e" d="M3 5h2M15 5h2M2 6h1M17 6h1M5 7h4M11 7h4M4 8h1M15 8h1M7 12h1M12 12h1M8 13h1M11 13h1M8 14h1M11 14h1M7 15h1M12 15h1" />
<path stroke="#4f4f4f" d="M5 5h2M13 5h2M3 6h5M12 6h5M2 7h3M15 7h3M3 8h1M16 8h1M8 11h1M11 11h1M8 12h4M9 13h2M9 14h2M8 15h1M11 15h1M10 16h1" />
<path stroke="#313131" d="M7 5h6M8 6h4M9 10h2M9 11h2" />
<path stroke="#282828" d="M9 7h2M9 8h2M9 9h2" />
<path stroke="#404040" d="M2 8h1M17 8h1M2 9h1M17 9h1M2 12h1M17 12h1M3 13h2M15 13h2" />
<path stroke="#1b1b1b" d="M5 8h4M11 8h4M3 9h2M8 9h1M11 9h1M15 9h2M2 10h1M8 10h1M11 10h1M17 10h1M2 11h2M6 11h2M12 11h2M16 11h2M3 12h3M14 12h3M9 15h2M9 16h1M11 16h1M9 17h3" />
<path stroke="#0f0f0f" d="M5 9h1M14 9h1M3 10h3M14 10h3M4 11h2M14 11h2M8 16h1M8 17h1M9 18h2" />
<path stroke="#b4b4b4" d="M7 9h1M13 9h1" />
<path stroke="#656565" d="M6 12h1M13 12h1M5 13h3M12 13h3M7 14h1M12 14h1" />
</svg>